<?xml version="1.0" encoding="UTF-8" standalone="no"?>
<!DOCTYPE svg PUBLIC "-//W3C//DTD SVG 1.1//EN" "http://www.w3.org/Graphics/SVG/1.1/DTD/svg11.dtd">
<svg version="1.1" xmlns="http://www.w3.org/2000/svg" xmlns:xlink="http://www.w3.org/1999/xlink" preserveAspectRatio="xMidYMid meet" viewBox="0 0 50 50" width="50" height="50"><defs><path d="M40.95 21.86C40.28 21.9 36.92 22.09 30.87 22.42C34.2 18.63 36.05 16.53 36.42 16.11C37.21 15.21 37.44 14.01 37.13 12.93C36.97 12.2 36.52 11.53 35.84 11.1C35.82 11.09 22.58 3.4 22.58 3.4C21.5 2.77 20.14 2.91 19.2 3.74C18.56 4.32 13.38 8.93 12.74 9.51C11.54 10.57 11.44 12.4 12.5 13.59C13.57 14.78 15.39 14.89 16.59 13.82C16.91 13.53 18.55 12.08 21.49 9.45L25.54 11.8C21.25 16.69 18.86 19.41 18.39 19.95C15.42 20.44 12.75 21.8 10.66 23.78C11.03 24.15 14.02 27.14 14.39 27.51C16.08 25.98 18.32 25.04 20.78 25.04C26.02 25.04 30.29 29.3 30.29 34.55C30.29 37 29.35 39.25 27.81 40.94C28.19 41.31 31.18 44.3 31.55 44.67C34.04 42.03 35.57 38.47 35.57 34.55C35.57 32.21 35.02 30 34.06 28.04C34.32 28.02 35.62 27.95 37.96 27.82C37.39 34.81 37.08 38.69 37.01 39.47C36.88 41.06 38.07 42.45 39.66 42.58C39.74 42.59 39.82 42.59 39.9 42.59C41.39 42.59 42.65 41.45 42.78 39.93C42.9 38.44 43.87 26.48 44 24.99C44.06 24.15 43.77 23.33 43.18 22.73C42.6 22.13 41.79 21.82 40.95 21.86Z" id="c6iLqZHRkC"></path><path d="M42.67 5.51C42.67 2.83 40.5 0.67 37.83 0.67C35.16 0.67 32.99 2.83 32.99 5.51C32.99 8.18 35.16 10.35 37.83 10.35C40.5 10.35 42.67 8.18 42.67 5.51Z" id="c5uvKmgcIc"></path><path d="M11.27 34.55C11.27 32.57 11.88 30.73 12.92 29.21C12.54 28.83 9.52 25.81 9.14 25.44C7.17 27.95 5.99 31.11 5.99 34.55C5.99 42.71 12.61 49.33 20.78 49.33C24.22 49.33 27.38 48.16 29.89 46.19C29.51 45.81 26.49 42.79 26.11 42.41C24.59 43.45 22.76 44.05 20.78 44.05C15.54 44.05 11.27 39.79 11.27 34.55Z" id="atboR5ZmS"></path></defs><g><g><g><g><g><use xlink:href="#c6iLqZHRkC" opacity="1" fill="#000000" fill-opacity="1"></use></g><g><use xlink:href="#c5uvKmgcIc" opacity="1" fill="#000000" fill-opacity="1"></use></g></g><g><use xlink:href="#atboR5ZmS" opacity="1" fill="#000000" fill-opacity="1"></use></g></g></g></g></svg>