<?xml version="1.0" encoding="UTF-8" standalone="no"?>
<!DOCTYPE svg PUBLIC "-//W3C//DTD SVG 1.1//EN" "http://www.w3.org/Graphics/SVG/1.1/DTD/svg11.dtd">
<svg version="1.1" xmlns="http://www.w3.org/2000/svg" xmlns:xlink="http://www.w3.org/1999/xlink" preserveAspectRatio="xMidYMid meet" viewBox="0 0 50 50" width="50" height="50"><defs><path d="M40.52 21.95C39.86 21.99 36.59 22.17 30.71 22.5C33.95 18.81 35.75 16.76 36.11 16.35C36.88 15.48 37.1 14.31 36.8 13.27C36.64 12.55 36.21 11.9 35.54 11.49C35.52 11.47 22.65 3.99 22.65 3.99C21.6 3.38 20.27 3.51 19.36 4.32C18.73 4.89 13.7 9.37 13.07 9.93C11.91 10.97 11.81 12.75 12.85 13.91C13.88 15.06 15.66 15.17 16.82 14.13C17.13 13.85 18.72 12.43 21.59 9.88L25.53 12.17C21.35 16.92 19.03 19.56 18.57 20.09C15.68 20.56 13.09 21.89 11.05 23.81C11.41 24.17 14.32 27.08 14.68 27.44C16.33 25.95 18.51 25.04 20.9 25.04C25.99 25.04 30.14 29.19 30.14 34.28C30.14 36.67 29.23 38.85 27.74 40.5C28.1 40.86 31.01 43.77 31.37 44.13C33.79 41.56 35.28 38.1 35.28 34.28C35.28 32.01 34.75 29.87 33.81 27.96C34.07 27.94 35.33 27.87 37.61 27.74C37.05 34.54 36.75 38.31 36.68 39.07C36.56 40.62 37.71 41.97 39.26 42.1C39.34 42.11 39.41 42.11 39.49 42.11C40.94 42.11 42.17 40.99 42.29 39.52C42.41 38.07 43.36 26.44 43.47 24.99C43.54 24.18 43.25 23.38 42.69 22.79C42.12 22.21 41.33 21.91 40.52 21.95Z" id="i1JzVNEw9B"></path><path d="M42.18 6.04C42.18 3.44 40.08 1.34 37.48 1.34C34.88 1.34 32.77 3.44 32.77 6.04C32.77 8.64 34.88 10.75 37.48 10.75C40.08 10.75 42.18 8.64 42.18 6.04Z" id="azrogVGMu"></path><path d="M11.65 34.28C11.65 32.36 12.24 30.58 13.25 29.1C12.88 28.73 9.94 25.79 9.57 25.42C7.66 27.87 6.52 30.94 6.52 34.28C6.52 42.23 12.95 48.66 20.9 48.66C24.24 48.66 27.31 47.52 29.76 45.61C29.39 45.24 26.45 42.3 26.08 41.93C24.6 42.94 22.82 43.53 20.9 43.53C15.8 43.53 11.65 39.38 11.65 34.28Z" id="dfUkXutyJ"></path></defs><g><g><g><g><g><g><use xlink:href="#i1JzVNEw9B" opacity="1" fill-opacity="0" stroke="#000000" stroke-width="1" stroke-opacity="1"></use></g></g><g><g><use xlink:href="#azrogVGMu" opacity="1" fill-opacity="0" stroke="#000000" stroke-width="1" stroke-opacity="1"></use></g></g></g><g><g><use xlink:href="#dfUkXutyJ" opacity="1" fill-opacity="0" stroke="#000000" stroke-width="1" stroke-opacity="1"></use></g></g></g></g></g></svg>