<?xml version="1.0" encoding="UTF-8" standalone="no"?>
<!DOCTYPE svg PUBLIC "-//W3C//DTD SVG 1.1//EN" "http://www.w3.org/Graphics/SVG/1.1/DTD/svg11.dtd">
<svg version="1.1" xmlns="http://www.w3.org/2000/svg" xmlns:xlink="http://www.w3.org/1999/xlink" preserveAspectRatio="xMidYMid meet" viewBox="0 0 75 75" width="75" height="75"><defs><path d="M1.72 33.75C1.72 15.61 17.84 0.9 37.72 0.9C57.6 0.9 73.71 15.61 73.71 33.75C73.71 51.9 57.6 66.6 37.72 66.6C32.89 66.6 28.28 65.74 24.08 64.16C23.19 64.75 18.75 67.66 10.75 72.89L12.83 57.48C5.42 47.88 1.72 39.97 1.72 33.75Z" id="d2ihEGp7Y"></path><path d="M54.79 31.46C54.07 31.5 50.42 31.7 43.87 32.07C47.47 27.96 49.48 25.67 49.88 25.22C50.74 24.24 50.98 22.94 50.65 21.78C50.48 20.98 49.99 20.26 49.25 19.79C49.23 19.78 34.88 11.44 34.88 11.44C33.71 10.76 32.23 10.91 31.22 11.81C30.52 12.44 24.91 17.44 24.21 18.07C22.91 19.22 22.8 21.2 23.95 22.49C25.11 23.78 27.09 23.9 28.38 22.74C28.73 22.43 30.5 20.85 33.69 18L38.09 20.55C33.43 25.85 30.85 28.8 30.33 29.39C27.12 29.91 24.22 31.39 21.95 33.53C22.35 33.94 25.59 37.18 26 37.58C27.83 35.92 30.26 34.9 32.93 34.9C38.61 34.9 43.23 39.52 43.23 45.21C43.23 47.87 42.22 50.3 40.55 52.13C40.96 52.54 44.2 55.78 44.6 56.18C47.3 53.31 48.96 49.45 48.96 45.21C48.96 42.67 48.37 40.28 47.32 38.15C47.6 38.14 49.01 38.06 51.55 37.92C50.94 45.49 50.59 49.7 50.52 50.54C50.38 52.26 51.67 53.78 53.39 53.92C53.48 53.92 53.57 53.93 53.65 53.93C55.27 53.93 56.64 52.69 56.77 51.05C56.9 49.43 57.96 36.46 58.09 34.84C58.17 33.94 57.85 33.05 57.21 32.4C56.58 31.75 55.7 31.41 54.79 31.46Z" id="aMIGnw8Jw"></path><path d="M56.65 13.73C56.65 10.83 54.31 8.48 51.41 8.48C48.51 8.48 46.16 10.83 46.16 13.73C46.16 16.62 48.51 18.97 51.41 18.97C54.31 18.97 56.65 16.62 56.65 13.73Z" id="a2TsJu7zSn"></path><path d="M22.62 45.21C22.62 43.06 23.28 41.07 24.4 39.42C23.99 39.01 20.72 35.74 20.31 35.33C18.17 38.05 16.9 41.48 16.9 45.21C16.9 54.06 24.07 61.23 32.93 61.23C36.65 61.23 40.08 59.96 42.8 57.83C42.39 57.42 39.12 54.14 38.71 53.73C37.06 54.85 35.07 55.51 32.93 55.51C27.24 55.51 22.62 50.89 22.62 45.21Z" id="a1AGy4C36M"></path></defs><g><g><g><use xlink:href="#d2ihEGp7Y" opacity="1" fill="#ffffff" fill-opacity="1"></use><g><use xlink:href="#d2ihEGp7Y" opacity="1" fill-opacity="0" stroke="#8c00c2" stroke-width="2" stroke-opacity="1"></use></g></g><g><g><g><use xlink:href="#aMIGnw8Jw" opacity="1" fill="#8c00c2" fill-opacity="1"></use></g><g><use xlink:href="#a2TsJu7zSn" opacity="1" fill="#8c00c2" fill-opacity="1"></use></g></g><g><use xlink:href="#a1AGy4C36M" opacity="1" fill="#8c00c2" fill-opacity="1"></use></g></g></g></g></svg>