<?xml version="1.0" encoding="UTF-8" standalone="no"?>
<!DOCTYPE svg PUBLIC "-//W3C//DTD SVG 1.1//EN" "http://www.w3.org/Graphics/SVG/1.1/DTD/svg11.dtd">
<svg version="1.1" xmlns="http://www.w3.org/2000/svg" xmlns:xlink="http://www.w3.org/1999/xlink" preserveAspectRatio="xMidYMid meet" viewBox="0 0 300 300" width="300" height="300"><defs><path d="M3.92 138.61C3.92 65.07 69.24 5.46 149.82 5.46C230.4 5.46 295.72 65.06 295.72 138.61C295.72 212.15 230.4 271.77 149.83 271.77C130.25 271.77 111.58 268.25 94.52 261.88C90.92 264.24 72.92 276.03 40.53 297.26L48.92 234.78C18.92 195.87 3.92 163.82 3.92 138.61Z" id="e4uiOLzVy"></path><path d="M210.27 127.86C207.59 128 194.21 128.75 170.12 130.09C183.38 114.99 190.74 106.6 192.21 104.93C195.36 101.34 196.26 96.56 195.04 92.29C194.4 89.37 192.63 86.7 189.91 85C189.82 84.94 137.09 54.31 137.09 54.31C132.78 51.81 127.36 52.36 123.64 55.67C121.07 57.97 100.46 76.35 97.88 78.65C93.14 82.88 92.72 90.16 96.95 94.91C101.19 99.65 108.47 100.07 113.21 95.84C114.52 94.68 121.03 88.87 132.74 78.42L148.89 87.79C131.79 107.27 122.29 118.08 120.39 120.25C108.57 122.18 97.94 127.62 89.59 135.47C91.08 136.96 102.99 148.87 104.48 150.35C111.2 144.24 120.13 140.5 129.92 140.5C150.8 140.5 167.79 157.49 167.79 178.37C167.79 188.16 164.05 197.09 157.94 203.81C159.42 205.3 171.33 217.21 172.82 218.7C182.73 208.16 188.81 193.98 188.81 178.37C188.81 169.07 186.66 160.27 182.82 152.45C183.85 152.39 189.03 152.1 198.36 151.58C196.09 179.41 194.83 194.87 194.58 197.96C194.06 204.3 198.78 209.86 205.12 210.37C205.44 210.4 205.75 210.41 206.07 210.41C212 210.41 217.04 205.85 217.53 199.83C218.02 193.88 221.9 146.24 222.38 140.29C222.66 136.97 221.48 133.7 219.16 131.32C216.83 128.93 213.59 127.67 210.27 127.86Z" id="b1koXj89QM"></path><path d="M217.1 62.71C217.1 52.07 208.47 43.43 197.83 43.43C187.18 43.43 178.55 52.07 178.55 62.71C178.55 73.36 187.18 81.99 197.83 81.99C208.47 81.99 217.1 73.36 217.1 62.71Z" id="a1f373MAiN"></path><path d="M92.06 178.37C92.06 170.5 94.47 163.19 98.6 157.12C97.09 155.62 85.06 143.59 83.56 142.08C75.72 152.08 71.03 164.68 71.03 178.37C71.03 210.89 97.4 237.26 129.92 237.26C143.62 237.26 156.21 232.57 166.21 224.73C164.7 223.23 152.67 211.2 151.17 209.69C145.1 213.82 137.79 216.23 129.92 216.23C109.05 216.23 92.06 199.25 92.06 178.37Z" id="b3KDOAK0j"></path></defs><g><g><g><g><use xlink:href="#e4uiOLzVy" opacity="1" fill-opacity="0" stroke="#8400b8" stroke-width="4" stroke-opacity="1"></use></g></g><g><g><g><g><use xlink:href="#b1koXj89QM" opacity="1" fill-opacity="0" stroke="#943b00" stroke-width="3" stroke-opacity="1"></use></g></g><g><g><use xlink:href="#a1f373MAiN" opacity="1" fill-opacity="0" stroke="#943b00" stroke-width="3" stroke-opacity="1"></use></g></g></g><g><g><use xlink:href="#b3KDOAK0j" opacity="1" fill-opacity="0" stroke="#943b00" stroke-width="3" stroke-opacity="1"></use></g></g></g></g></g></svg>