<?xml version="1.0" encoding="UTF-8" standalone="no"?>
<!DOCTYPE svg PUBLIC "-//W3C//DTD SVG 1.1//EN" "http://www.w3.org/Graphics/SVG/1.1/DTD/svg11.dtd">
<svg version="1.1" xmlns="http://www.w3.org/2000/svg" xmlns:xlink="http://www.w3.org/1999/xlink" preserveAspectRatio="xMidYMid meet" viewBox="0 0 100 100" width="100" height="100"><defs><path d="M17.35 16.15L45.59 18.77L45.59 69.83L17.35 74.49L17.35 16.15Z" id="d1Pd8gxNnU"></path><path d="M22.05 20.99L42.21 22.67L42.21 41.28L22.05 42.96L22.05 20.99Z" id="a3AHOCrrZV"></path><path d="M83.6 16.15L55.36 18.77L55.36 69.83L83.6 74.49L83.6 16.15Z" id="c61WU6VPB"></path><path d="M78.9 20.99L58.74 22.67L58.74 41.28L78.9 42.96L78.9 20.99Z" id="aFgZPzZcm"></path><path d="M42.88 50.53L42.88 45.32L39.75 45.32" id="aqwxDTG12"></path><path d="M57.86 50.53L57.86 45.32L60.99 45.32" id="i1oEcNNi1i"></path><path d="M83.6 16.15L17.35 16.15" id="b3HFHcFgyf"></path><path d="M87.12 75.15L14.41 75.15" id="e2D8OLYKxC"></path><path d="M1.02 45.72C1.02 21.03 22.95 1.02 50 1.02C77.05 1.02 98.98 21.03 98.98 45.72C98.98 70.41 77.06 90.43 50 90.43C43.43 90.43 37.16 89.24 31.44 87.11C30.23 87.9 24.18 91.86 13.31 98.98L16.13 78.01C6.05 64.95 1.02 54.18 1.02 45.72Z" id="d7zr7KxLS"></path></defs><g><g><g><g><g><use xlink:href="#d1Pd8gxNnU" opacity="1" fill-opacity="0" stroke="#700353" stroke-width="1" stroke-opacity="1"></use></g></g><g><g><use xlink:href="#a3AHOCrrZV" opacity="1" fill-opacity="0" stroke="#700353" stroke-width="0.5" stroke-opacity="1"></use></g></g><g><g><use xlink:href="#c61WU6VPB" opacity="1" fill-opacity="0" stroke="#700353" stroke-width="1" stroke-opacity="1"></use></g></g><g><g><use xlink:href="#aFgZPzZcm" opacity="1" fill-opacity="0" stroke="#700353" stroke-width="0.5" stroke-opacity="1"></use></g></g><g><g><use xlink:href="#aqwxDTG12" opacity="1" fill-opacity="0" stroke="#700353" stroke-width="0.5" stroke-opacity="1"></use></g></g><g><g><use xlink:href="#i1oEcNNi1i" opacity="1" fill-opacity="0" stroke="#700353" stroke-width="0.5" stroke-opacity="1"></use></g></g><g><g><use xlink:href="#b3HFHcFgyf" opacity="1" fill-opacity="0" stroke="#700353" stroke-width="0.5" stroke-opacity="1"></use></g></g><g><g><use xlink:href="#e2D8OLYKxC" opacity="1" fill-opacity="0" stroke="#700353" stroke-width="0.5" stroke-opacity="1"></use></g></g></g><g><g><use xlink:href="#d7zr7KxLS" opacity="1" fill-opacity="0" stroke="#700353" stroke-width="1" stroke-opacity="1"></use></g></g></g></g></svg>