<?xml version="1.0" encoding="UTF-8" standalone="no"?>
<!DOCTYPE svg PUBLIC "-//W3C//DTD SVG 1.1//EN" "http://www.w3.org/Graphics/SVG/1.1/DTD/svg11.dtd">
<svg version="1.1" xmlns="http://www.w3.org/2000/svg" xmlns:xlink="http://www.w3.org/1999/xlink" preserveAspectRatio="xMidYMid meet" viewBox="0 0 100 100" width="100" height="100"><defs><path d="M99.19 50.06C99.19 77.2 77.15 99.24 50 99.24C22.85 99.24 0.81 77.2 0.81 50.06C0.81 22.91 22.85 0.87 50 0.87C77.15 0.87 99.19 22.91 99.19 50.06Z" id="f1Xl4Qb6B6"></path><path d="M15.45 19.62L44.86 22.35L44.86 75.53L15.45 80.38L15.45 19.62Z" id="a14Dq4yO7F"></path><path d="M20.34 24.66L41.35 26.41L41.35 45.79L20.34 47.54L20.34 24.66Z" id="b2G2BpG8N"></path><path d="M84.45 19.62L55.04 22.35L55.04 75.53L84.45 80.38L84.45 19.62Z" id="b10l8DYU2s"></path><path d="M79.56 24.66L58.56 26.41L58.56 45.79L79.56 47.54L79.56 24.66Z" id="a9Nq1Dr4Op"></path><path d="M42.04 55.43L42.04 50L38.79 50" id="b4n0TOEKAn"></path><path d="M57.65 55.43L57.65 50L60.9 50" id="e2UzxSWeDp"></path><path d="M84.45 19.62L15.45 19.62" id="f2eEAcgdJx"></path><path d="M88.12 81.07L12.39 81.07" id="b296iKuElR"></path></defs><g><g><g><use xlink:href="#f1Xl4Qb6B6" opacity="1" fill="#ffffff" fill-opacity="1"></use><g><use xlink:href="#f1Xl4Qb6B6" opacity="1" fill-opacity="0" stroke="#000000" stroke-width="1" stroke-opacity="1"></use></g></g><g><g><g><use xlink:href="#a14Dq4yO7F" opacity="1" fill-opacity="0" stroke="#000000" stroke-width="1" stroke-opacity="1"></use></g></g><g><g><use xlink:href="#b2G2BpG8N" opacity="1" fill-opacity="0" stroke="#000000" stroke-width="0.5" stroke-opacity="1"></use></g></g><g><g><use xlink:href="#b10l8DYU2s" opacity="1" fill-opacity="0" stroke="#000000" stroke-width="1" stroke-opacity="1"></use></g></g><g><g><use xlink:href="#a9Nq1Dr4Op" opacity="1" fill-opacity="0" stroke="#000000" stroke-width="0.5" stroke-opacity="1"></use></g></g><g><g><use xlink:href="#b4n0TOEKAn" opacity="1" fill-opacity="0" stroke="#000000" stroke-width="0.5" stroke-opacity="1"></use></g></g><g><g><use xlink:href="#e2UzxSWeDp" opacity="1" fill-opacity="0" stroke="#000000" stroke-width="0.5" stroke-opacity="1"></use></g></g><g><g><use xlink:href="#f2eEAcgdJx" opacity="1" fill-opacity="0" stroke="#000000" stroke-width="0.5" stroke-opacity="1"></use></g></g><g><g><use xlink:href="#b296iKuElR" opacity="1" fill-opacity="0" stroke="#000000" stroke-width="0.5" stroke-opacity="1"></use></g></g></g></g></g></svg>