<?xml version="1.0" encoding="UTF-8" standalone="no"?>
<!DOCTYPE svg PUBLIC "-//W3C//DTD SVG 1.1//EN" "http://www.w3.org/Graphics/SVG/1.1/DTD/svg11.dtd">
<svg version="1.1" xmlns="http://www.w3.org/2000/svg" xmlns:xlink="http://www.w3.org/1999/xlink" preserveAspectRatio="xMidYMid meet" viewBox="0 0 125 125" width="125" height="125"><defs><path d="M22.79 21.39L57.25 24.59L57.25 86.9L22.79 92.58L22.79 21.39Z" id="b3kdB2lYKg"></path><path d="M28.52 27.3L53.13 29.34L53.13 52.05L28.52 54.11L28.52 27.3Z" id="a3OgYVSBZh"></path><path d="M103.63 21.39L69.17 24.59L69.17 86.9L103.63 92.58L103.63 21.39Z" id="a1602H9Xf"></path><path d="M97.9 27.3L73.29 29.34L73.29 52.05L97.9 54.11L97.9 27.3Z" id="c3KiH80QCy"></path><path d="M53.94 63.34L53.94 56.99L50.12 56.99" id="b2jrKuBLdk"></path><path d="M72.22 63.34L72.22 56.99L76.04 56.99" id="d16kFhNg45"></path><path d="M103.63 21.39L22.79 21.39" id="a2hcCaPTqD"></path><path d="M107.93 93.39L19.19 93.39" id="a3zYdzjzC6"></path><path d="M1.85 56.76C1.85 26.19 29.01 1.41 62.5 1.41C95.99 1.41 123.15 26.19 123.15 56.76C123.15 87.33 96 112.11 62.5 112.11C54.37 112.11 46.6 110.65 39.52 108C38.02 108.98 30.54 113.88 17.07 122.7L20.56 96.74C8.09 80.56 1.85 67.24 1.85 56.76Z" id="a12EqZNfmW"></path></defs><g><g><g><g><g><use xlink:href="#b3kdB2lYKg" opacity="1" fill-opacity="0" stroke="#8c00c2" stroke-width="1" stroke-opacity="1"></use></g></g><g><g><use xlink:href="#a3OgYVSBZh" opacity="1" fill-opacity="0" stroke="#8c00c2" stroke-width="0.5" stroke-opacity="1"></use></g></g><g><g><use xlink:href="#a1602H9Xf" opacity="1" fill-opacity="0" stroke="#8c00c2" stroke-width="1" stroke-opacity="1"></use></g></g><g><g><use xlink:href="#c3KiH80QCy" opacity="1" fill-opacity="0" stroke="#8c00c2" stroke-width="0.5" stroke-opacity="1"></use></g></g><g><g><use xlink:href="#b2jrKuBLdk" opacity="1" fill-opacity="0" stroke="#8c00c2" stroke-width="0.5" stroke-opacity="1"></use></g></g><g><g><use xlink:href="#d16kFhNg45" opacity="1" fill-opacity="0" stroke="#8c00c2" stroke-width="0.5" stroke-opacity="1"></use></g></g><g><g><use xlink:href="#a2hcCaPTqD" opacity="1" fill-opacity="0" stroke="#8c00c2" stroke-width="0.5" stroke-opacity="1"></use></g></g><g><g><use xlink:href="#a3zYdzjzC6" opacity="1" fill-opacity="0" stroke="#8c00c2" stroke-width="0.5" stroke-opacity="1"></use></g></g></g><g><g><use xlink:href="#a12EqZNfmW" opacity="1" fill-opacity="0" stroke="#8c00c2" stroke-width="2" stroke-opacity="1"></use></g></g></g></g></svg>