<?xml version="1.0" encoding="UTF-8" standalone="no"?>
<!DOCTYPE svg PUBLIC "-//W3C//DTD SVG 1.1//EN" "http://www.w3.org/Graphics/SVG/1.1/DTD/svg11.dtd">
<svg version="1.1" xmlns="http://www.w3.org/2000/svg" xmlns:xlink="http://www.w3.org/1999/xlink" preserveAspectRatio="xMidYMid meet" viewBox="0 0 100 100" width="100" height="100"><defs><path d="M82.62 25.01C82.62 29.04 79.58 35.95 73.51 45.73C67.44 35.95 64.4 29.04 64.4 25.01C64.4 18.96 68.48 14.05 73.51 14.05C78.54 14.05 82.62 18.96 82.62 25.01Z" id="c5M71iKn07"></path><path d="M77.58 24.45C77.58 26.7 75.76 28.53 73.51 28.53C71.26 28.53 69.44 26.7 69.44 24.45C69.44 22.2 71.26 20.38 73.51 20.38C75.76 20.38 77.58 22.2 77.58 24.45Z" id="atwSs6ALd"></path><path d="M55.12 48.77C54.35 48.81 50.49 49.03 43.55 49.41C47.37 45.06 49.49 42.65 49.92 42.16C50.83 41.13 51.08 39.76 50.73 38.53C50.55 37.68 50.04 36.92 49.25 36.43C49.23 36.41 34.04 27.59 34.04 27.59C32.8 26.86 31.24 27.02 30.17 27.98C29.43 28.64 23.49 33.93 22.75 34.6C21.38 35.82 21.26 37.91 22.48 39.28C23.7 40.65 25.8 40.77 27.16 39.55C27.54 39.21 29.41 37.54 32.79 34.53L37.44 37.23C32.51 42.84 29.78 45.96 29.23 46.58C25.83 47.13 22.76 48.7 20.36 50.96C20.79 51.39 24.22 54.82 24.65 55.25C26.59 53.49 29.16 52.41 31.98 52.41C37.99 52.41 42.88 57.31 42.88 63.32C42.88 66.14 41.81 68.71 40.05 70.65C40.47 71.08 43.9 74.51 44.33 74.93C47.19 71.9 48.94 67.82 48.94 63.32C48.94 60.64 48.32 58.11 47.21 55.85C47.51 55.84 49 55.75 51.69 55.6C51.04 63.62 50.67 68.07 50.6 68.96C50.45 70.79 51.81 72.39 53.64 72.54C53.73 72.54 53.82 72.55 53.91 72.55C55.62 72.55 57.07 71.23 57.21 69.5C57.35 67.79 58.47 54.07 58.61 52.35C58.69 51.4 58.35 50.45 57.68 49.77C57.01 49.08 56.08 48.72 55.12 48.77Z" id="b4F7DEckWx"></path><path d="M57.09 30.01C57.09 26.94 54.6 24.45 51.54 24.45C48.47 24.45 45.98 26.94 45.98 30.01C45.98 33.07 48.47 35.56 51.54 35.56C54.6 35.56 57.09 33.07 57.09 30.01Z" id="b6oPbhgjG"></path><path d="M21.07 63.32C21.07 61.05 21.77 58.95 22.95 57.2C22.52 56.77 19.05 53.3 18.62 52.87C16.36 55.75 15.01 59.37 15.01 63.32C15.01 72.69 22.61 80.28 31.98 80.28C35.92 80.28 39.55 78.93 42.43 76.67C42 76.24 38.53 72.77 38.1 72.34C36.35 73.53 34.24 74.22 31.98 74.22C25.96 74.22 21.07 69.33 21.07 63.32Z" id="ctQq2As2B"></path><path d="M1.02 45.72C1.02 21.03 22.95 1.02 50 1.02C77.05 1.02 98.98 21.03 98.98 45.72C98.98 70.41 77.06 90.43 50 90.43C43.43 90.43 37.16 89.24 31.44 87.11C30.23 87.9 24.18 91.86 13.31 98.98L16.13 78.01C6.05 64.95 1.02 54.18 1.02 45.72Z" id="f1Hi9TgIPr"></path><path d="M78.35 48.47L68.67 48.47" id="e5GeH5aXX"></path></defs><g><g><g><g><use xlink:href="#c5M71iKn07" opacity="1" fill-opacity="0" stroke="#700353" stroke-width="0.7" stroke-opacity="1"></use></g></g><g><g><use xlink:href="#atwSs6ALd" opacity="1" fill-opacity="0" stroke="#700353" stroke-width="0.5" stroke-opacity="1"></use></g></g><g><g><g><g><use xlink:href="#b4F7DEckWx" opacity="1" fill-opacity="0" stroke="#700353" stroke-width="1" stroke-opacity="1"></use></g></g><g><g><use xlink:href="#b6oPbhgjG" opacity="1" fill-opacity="0" stroke="#700353" stroke-width="1" stroke-opacity="1"></use></g></g></g><g><g><use xlink:href="#ctQq2As2B" opacity="1" fill-opacity="0" stroke="#700353" stroke-width="1" stroke-opacity="1"></use></g></g></g><g><g><use xlink:href="#f1Hi9TgIPr" opacity="1" fill-opacity="0" stroke="#700353" stroke-width="1" stroke-opacity="1"></use></g></g><g><g><use xlink:href="#e5GeH5aXX" opacity="1" fill-opacity="0" stroke="#700353" stroke-width="0.5" stroke-opacity="1"></use></g></g></g></g></svg>