<?xml version="1.0" encoding="UTF-8" standalone="no"?>
<!DOCTYPE svg PUBLIC "-//W3C//DTD SVG 1.1//EN" "http://www.w3.org/Graphics/SVG/1.1/DTD/svg11.dtd">
<svg version="1.1" xmlns="http://www.w3.org/2000/svg" xmlns:xlink="http://www.w3.org/1999/xlink" preserveAspectRatio="xMidYMid meet" viewBox="0 0 100 100" width="100" height="100"><defs><path d="M99.19 50.06C99.19 77.2 77.15 99.24 50 99.24C22.85 99.24 0.81 77.2 0.81 50.06C0.81 22.91 22.85 0.87 50 0.87C77.15 0.87 99.19 22.91 99.19 50.06Z" id="f3I798dtNe"></path><path d="M94.68 30.48L0.81 50.9" id="g1nNjp9kvY"></path><path d="M94.43 70.9L34.63 96.3" id="gdwXjcneH"></path><path d="M82.62 25.01C82.62 29.04 79.58 35.95 73.51 45.73C67.44 35.95 64.4 29.04 64.4 25.01C64.4 18.96 68.48 14.05 73.51 14.05C78.54 14.05 82.62 18.96 82.62 25.01Z" id="ef19uzchi"></path><path d="M77.58 24.45C77.58 26.7 75.76 28.53 73.51 28.53C71.26 28.53 69.44 26.7 69.44 24.45C69.44 22.2 71.26 20.38 73.51 20.38C75.76 20.38 77.58 22.2 77.58 24.45Z" id="a3MS7CqLWB"></path><path d="M99.04 47.18C62.25 58.91 36.36 67.15 21.35 71.9C15.95 73.61 11.91 74.88 9.22 75.73L18.12 72.92" id="dlWG2iPMK"></path><path d="M55.93 61.3L46.11 64.69" id="bWJZQsJzb"></path><path d="M52.66 51.05C51.89 51.09 48.04 51.3 41.1 51.69C44.92 47.34 47.04 44.92 47.46 44.44C48.37 43.41 48.63 42.03 48.28 40.8C48.09 39.96 47.58 39.19 46.8 38.7C46.78 38.69 31.59 29.86 31.59 29.86C30.35 29.14 28.78 29.3 27.71 30.25C26.97 30.92 21.04 36.21 20.29 36.87C18.93 38.09 18.81 40.19 20.03 41.56C21.25 42.92 23.34 43.04 24.71 41.82C25.08 41.49 26.96 39.82 30.33 36.81L34.98 39.51C30.06 45.12 27.32 48.23 26.78 48.86C23.37 49.41 20.31 50.98 17.91 53.24C18.33 53.67 21.76 57.1 22.19 57.53C24.13 55.76 26.7 54.69 29.52 54.69C35.54 54.69 40.43 59.58 40.43 65.6C40.43 68.41 39.35 70.99 37.59 72.93C38.02 73.35 41.45 76.78 41.88 77.21C44.73 74.18 46.49 70.09 46.49 65.6C46.49 62.92 45.86 60.38 44.76 58.13C45.06 58.11 46.55 58.03 49.23 57.88C48.58 65.9 48.22 70.35 48.15 71.24C48 73.06 49.36 74.67 51.18 74.81C51.27 74.82 51.36 74.83 51.45 74.83C53.16 74.83 54.62 73.51 54.76 71.78C54.9 70.06 56.01 56.34 56.15 54.63C56.23 53.67 55.89 52.73 55.22 52.04C54.56 51.36 53.62 50.99 52.66 51.05Z" id="a1oPGWn4LC"></path><path d="M54.63 32.28C54.63 29.22 52.15 26.73 49.08 26.73C46.01 26.73 43.53 29.22 43.53 32.28C43.53 35.35 46.01 37.83 49.08 37.83C52.15 37.83 54.63 35.35 54.63 32.28Z" id="a21LIQqHDF"></path><path d="M18.62 65.6C18.62 63.33 19.31 61.22 20.5 59.48C20.07 59.04 16.6 55.58 16.17 55.14C13.91 58.02 12.56 61.65 12.56 65.6C12.56 74.96 20.15 82.56 29.52 82.56C33.47 82.56 37.09 81.21 39.97 78.95C39.54 78.52 36.07 75.05 35.64 74.62C33.9 75.81 31.79 76.5 29.52 76.5C23.51 76.5 18.62 71.61 18.62 65.6Z" id="g5ueXIvg9Q"></path><path d="M35.24 67.73L26.43 70.55" id="awKcNVqLR"></path><path d="M68.33 57.1L59.52 59.92" id="b5le9kasq"></path><path d="M84.82 51.82L76.01 54.64" id="dhPtPCU7Y"></path><path d="M96.73 48.47L90.85 50" id="cgQKylzf"></path><path d="M10.95 75.52L9.14 75.95" id="a4DuYVaFtS"></path></defs><g><g><g><use xlink:href="#f3I798dtNe" opacity="1" fill="#ffffff" fill-opacity="1"></use><g><use xlink:href="#f3I798dtNe" opacity="1" fill-opacity="0" stroke="#000000" stroke-width="1" stroke-opacity="1"></use></g></g><g><g><use xlink:href="#g1nNjp9kvY" opacity="1" fill-opacity="0" stroke="#020202" stroke-width="0.5" stroke-opacity="1"></use></g></g><g><g><use xlink:href="#gdwXjcneH" opacity="1" fill-opacity="0" stroke="#020202" stroke-width="0.5" stroke-opacity="1"></use></g></g><g><use xlink:href="#ef19uzchi" opacity="1" fill="#ffffff" fill-opacity="1"></use><g><use xlink:href="#ef19uzchi" opacity="1" fill-opacity="0" stroke="#020202" stroke-width="0.7" stroke-opacity="1"></use></g></g><g><g><use xlink:href="#a3MS7CqLWB" opacity="1" fill-opacity="0" stroke="#020202" stroke-width="0.5" stroke-opacity="1"></use></g></g><g><g><use xlink:href="#dlWG2iPMK" opacity="1" fill-opacity="0" stroke="#020202" stroke-width="0.5" stroke-opacity="1"></use></g></g><g><g><use xlink:href="#bWJZQsJzb" opacity="1" fill-opacity="0" stroke="#ffffff" stroke-width="2" stroke-opacity="1"></use></g></g><g><g><g><use xlink:href="#a1oPGWn4LC" opacity="1" fill="#ffffff" fill-opacity="1"></use><g><use xlink:href="#a1oPGWn4LC" opacity="1" fill-opacity="0" stroke="#000000" stroke-width="1" stroke-opacity="0.99"></use></g></g><g><use xlink:href="#a21LIQqHDF" opacity="1" fill="#ffffff" fill-opacity="1"></use><g><use xlink:href="#a21LIQqHDF" opacity="1" fill-opacity="0" stroke="#000000" stroke-width="1" stroke-opacity="0.99"></use></g></g></g><g><use xlink:href="#g5ueXIvg9Q" opacity="1" fill="#ffffff" fill-opacity="1"></use><g><use xlink:href="#g5ueXIvg9Q" opacity="1" fill-opacity="0" stroke="#000000" stroke-width="1" stroke-opacity="0.99"></use></g></g></g><g><g><use xlink:href="#awKcNVqLR" opacity="1" fill-opacity="0" stroke="#ffffff" stroke-width="2" stroke-opacity="1"></use></g></g><g><g><use xlink:href="#b5le9kasq" opacity="1" fill-opacity="0" stroke="#ffffff" stroke-width="2" stroke-opacity="1"></use></g></g><g><g><use xlink:href="#dhPtPCU7Y" opacity="1" fill-opacity="0" stroke="#ffffff" stroke-width="2" stroke-opacity="1"></use></g></g><g><g><use xlink:href="#cgQKylzf" opacity="1" fill-opacity="0" stroke="#ffffff" stroke-width="2" stroke-opacity="1"></use></g></g><g><g><use xlink:href="#a4DuYVaFtS" opacity="1" fill-opacity="0" stroke="#ffffff" stroke-width="2" stroke-opacity="1"></use></g></g></g></g></svg>