<?xml version="1.0" encoding="UTF-8" standalone="no"?>
<!DOCTYPE svg PUBLIC "-//W3C//DTD SVG 1.1//EN" "http://www.w3.org/Graphics/SVG/1.1/DTD/svg11.dtd">
<svg version="1.1" xmlns="http://www.w3.org/2000/svg" xmlns:xlink="http://www.w3.org/1999/xlink" preserveAspectRatio="xMidYMid meet" viewBox="0 0 125 125" width="125" height="125"><defs><path d="M102.65 29.38C102.65 34.35 98.9 42.87 91.4 54.94C83.9 42.87 80.16 34.35 80.16 29.38C80.16 21.91 85.19 15.85 91.4 15.85C97.61 15.85 102.65 21.91 102.65 29.38Z" id="e5Ms3bOjqw"></path><path d="M96.43 28.69C96.43 31.46 94.18 33.71 91.4 33.71C88.63 33.71 86.37 31.46 86.37 28.69C86.37 25.91 88.63 23.66 91.4 23.66C94.18 23.66 96.43 25.91 96.43 28.69Z" id="b2jqz6daAN"></path><path d="M68.71 58.7C67.75 58.75 63 59.01 54.43 59.49C59.15 54.12 61.76 51.14 62.29 50.54C63.41 49.27 63.73 47.57 63.29 46.05C63.07 45.01 62.44 44.07 61.47 43.46C61.44 43.44 42.69 32.55 42.69 32.55C41.16 31.66 39.23 31.86 37.91 33.04C37 33.85 29.67 40.39 28.76 41.2C27.07 42.71 26.92 45.3 28.43 46.98C29.93 48.67 32.52 48.82 34.21 47.31C34.67 46.9 36.98 44.84 41.15 41.12L46.89 44.45C40.81 51.38 37.43 55.22 36.76 55.99C32.56 56.68 28.78 58.61 25.81 61.4C26.34 61.93 30.57 66.16 31.1 66.69C33.49 64.52 36.67 63.19 40.15 63.19C47.57 63.19 53.6 69.23 53.6 76.65C53.6 80.13 52.28 83.3 50.1 85.7C50.63 86.23 54.86 90.46 55.39 90.99C58.92 87.24 61.08 82.2 61.08 76.65C61.08 73.34 60.31 70.22 58.95 67.44C59.32 67.42 61.16 67.31 64.47 67.13C63.66 77.02 63.22 82.52 63.13 83.61C62.94 85.87 64.62 87.84 66.87 88.03C66.99 88.04 67.1 88.04 67.21 88.04C69.32 88.04 71.11 86.42 71.29 84.28C71.46 82.16 72.84 65.23 73.01 63.12C73.11 61.94 72.69 60.77 71.86 59.93C71.04 59.08 69.88 58.63 68.71 58.7Z" id="a4KfWS4BS"></path><path d="M71.13 35.54C71.13 31.75 68.07 28.69 64.28 28.69C60.5 28.69 57.43 31.75 57.43 35.54C57.43 39.32 60.5 42.39 64.28 42.39C68.07 42.39 71.13 39.32 71.13 35.54Z" id="aMhGWX9JM"></path><path d="M26.69 76.65C26.69 73.85 27.54 71.25 29.01 69.1C28.48 68.56 24.2 64.29 23.66 63.75C20.88 67.31 19.21 71.78 19.21 76.65C19.21 88.21 28.58 97.58 40.15 97.58C45.01 97.58 49.49 95.92 53.04 93.13C52.51 92.6 48.23 88.32 47.7 87.79C45.54 89.25 42.94 90.11 40.15 90.11C32.72 90.11 26.69 84.07 26.69 76.65Z" id="i3Gz9UVH4E"></path><path d="M97.37 58.33L85.43 58.33" id="e6bW470iuQ"></path><path d="M1.85 56.64C1.85 26.08 29.01 1.3 62.5 1.3C95.99 1.3 123.15 26.07 123.15 56.64C123.15 87.21 96 111.99 62.5 111.99C54.37 111.99 46.6 110.53 39.52 107.88C38.02 108.86 30.54 113.76 17.07 122.59L20.56 96.62C8.09 80.45 1.85 67.12 1.85 56.64Z" id="acAZ3Kkd"></path></defs><g><g><g><g><g><use xlink:href="#e5Ms3bOjqw" opacity="1" fill-opacity="0" stroke="#8c00c2" stroke-width="0.7" stroke-opacity="1"></use></g></g><g><g><use xlink:href="#b2jqz6daAN" opacity="1" fill-opacity="0" stroke="#8c00c2" stroke-width="0.5" stroke-opacity="1"></use></g></g><g><g><g><g><use xlink:href="#a4KfWS4BS" opacity="1" fill-opacity="0" stroke="#8c00c2" stroke-width="1" stroke-opacity="1"></use></g></g><g><g><use xlink:href="#aMhGWX9JM" opacity="1" fill-opacity="0" stroke="#8c00c2" stroke-width="1" stroke-opacity="1"></use></g></g></g><g><g><use xlink:href="#i3Gz9UVH4E" opacity="1" fill-opacity="0" stroke="#8c00c2" stroke-width="1" stroke-opacity="1"></use></g></g></g><g><g><use xlink:href="#e6bW470iuQ" opacity="1" fill-opacity="0" stroke="#8c00c2" stroke-width="0.5" stroke-opacity="1"></use></g></g></g><g><g><use xlink:href="#acAZ3Kkd" opacity="1" fill-opacity="0" stroke="#8c00c2" stroke-width="2" stroke-opacity="1"></use></g></g></g></g></svg>