<?xml version="1.0" encoding="UTF-8" standalone="no"?>
<!DOCTYPE svg PUBLIC "-//W3C//DTD SVG 1.1//EN" "http://www.w3.org/Graphics/SVG/1.1/DTD/svg11.dtd">
<svg version="1.1" xmlns="http://www.w3.org/2000/svg" xmlns:xlink="http://www.w3.org/1999/xlink" preserveAspectRatio="xMidYMid meet" viewBox="0 0 125 125" width="125" height="125"><defs><path d="M93.04 16.13C94.02 16.13 94.82 16.93 94.82 17.91C94.82 33.65 94.82 79.08 94.82 94.81C94.82 95.8 94.02 96.6 93.04 96.6C80.46 96.6 44.54 96.6 31.96 96.6C30.98 96.6 30.18 95.8 30.18 94.81C30.18 79.08 30.18 33.65 30.18 17.91C30.18 16.93 30.98 16.13 31.96 16.13C44.54 16.13 80.46 16.13 93.04 16.13Z" id="a48sfZgSMt"></path><path d="" id="b1vVUBORmY"></path><path d="M83.51 52.7C82.62 52.75 78.2 52.99 70.23 53.44C74.62 48.44 77.05 45.67 77.54 45.12C78.58 43.93 78.87 42.35 78.47 40.94C78.26 39.97 77.67 39.09 76.77 38.53C76.75 38.51 59.31 28.38 59.31 28.38C57.89 27.56 56.1 27.74 54.87 28.84C54.02 29.59 47.2 35.67 46.35 36.43C44.78 37.83 44.65 40.24 46.05 41.81C47.45 43.37 49.85 43.51 51.42 42.11C51.85 41.73 54 39.81 57.88 36.35L63.21 39.45C57.56 45.89 54.42 49.47 53.79 50.18C49.89 50.82 46.37 52.62 43.61 55.22C44.1 55.71 48.04 59.64 48.53 60.14C50.76 58.11 53.71 56.88 56.94 56.88C63.85 56.88 69.46 62.49 69.46 69.4C69.46 72.63 68.23 75.58 66.21 77.81C66.7 78.3 70.63 82.24 71.12 82.73C74.4 79.24 76.41 74.56 76.41 69.4C76.41 66.32 75.7 63.41 74.43 60.83C74.77 60.81 76.49 60.71 79.57 60.54C78.82 69.74 78.4 74.85 78.32 75.87C78.15 77.97 79.71 79.81 81.8 79.98C81.91 79.98 82.01 79.99 82.12 79.99C84.08 79.99 85.74 78.48 85.91 76.49C86.07 74.52 87.35 58.78 87.51 56.81C87.6 55.71 87.21 54.63 86.44 53.84C85.68 53.05 84.6 52.64 83.51 52.7Z" id="e4Zxlk9bN"></path><path d="M85.76 31.16C85.76 27.64 82.91 24.79 79.39 24.79C75.87 24.79 73.02 27.64 73.02 31.16C73.02 34.68 75.87 37.53 79.39 37.53C82.91 37.53 85.76 34.68 85.76 31.16Z" id="c1M6GzL5vj"></path><path d="M44.43 69.4C44.43 66.79 45.23 64.38 46.59 62.37C46.09 61.88 42.11 57.9 41.62 57.4C39.03 60.71 37.48 64.87 37.48 69.4C37.48 80.15 46.19 88.86 56.94 88.86C61.47 88.86 65.63 87.32 68.94 84.72C68.44 84.23 64.46 80.25 63.97 79.75C61.96 81.11 59.55 81.91 56.94 81.91C50.04 81.91 44.43 76.3 44.43 69.4Z" id="i3i0PLJ2oW"></path><path d="M54.76 111.4L54.76 97.12" id="b2D78X9I0a"></path><path d="M70.24 111.4L70.24 97.12" id="a1JwpDoaSB"></path><path d="M1.85 56.72C1.85 26.16 29.01 1.38 62.5 1.38C95.99 1.38 123.15 26.15 123.15 56.72C123.15 87.29 96 112.07 62.5 112.07C54.37 112.07 46.6 110.61 39.52 107.96C38.02 108.94 30.54 113.84 17.07 122.67L20.56 96.7C8.09 80.53 1.85 67.2 1.85 56.72Z" id="b1hXiqVgUE"></path></defs><g><g><g><g><use xlink:href="#a48sfZgSMt" opacity="1" fill-opacity="0" stroke="#8c00c2" stroke-width="1" stroke-opacity="1"></use></g></g><g><g><use xlink:href="#b1vVUBORmY" opacity="1" fill-opacity="0" stroke="#8c00c2" stroke-width="1" stroke-opacity="1"></use></g></g><g><g><g><g><use xlink:href="#e4Zxlk9bN" opacity="1" fill-opacity="0" stroke="#8c00c2" stroke-width="1" stroke-opacity="1"></use></g></g><g><g><use xlink:href="#c1M6GzL5vj" opacity="1" fill-opacity="0" stroke="#8c00c2" stroke-width="1" stroke-opacity="1"></use></g></g></g><g><g><use xlink:href="#i3i0PLJ2oW" opacity="1" fill-opacity="0" stroke="#8c00c2" stroke-width="1" stroke-opacity="1"></use></g></g></g><g><g><use xlink:href="#b2D78X9I0a" opacity="1" fill-opacity="0" stroke="#8c00c2" stroke-width="1" stroke-opacity="1"></use></g></g><g><g><use xlink:href="#a1JwpDoaSB" opacity="1" fill-opacity="0" stroke="#8c00c2" stroke-width="1" stroke-opacity="1"></use></g></g><g><g><use xlink:href="#b1hXiqVgUE" opacity="1" fill-opacity="0" stroke="#8c00c2" stroke-width="2" stroke-opacity="1"></use></g></g></g></g></svg>