<?xml version="1.0" encoding="UTF-8" standalone="no"?>
<!DOCTYPE svg PUBLIC "-//W3C//DTD SVG 1.1//EN" "http://www.w3.org/Graphics/SVG/1.1/DTD/svg11.dtd">
<svg version="1.1" xmlns="http://www.w3.org/2000/svg" xmlns:xlink="http://www.w3.org/1999/xlink" preserveAspectRatio="xMidYMid meet" viewBox="0 0 100 100" width="100" height="100"><defs><path d="M99.19 50.06C99.19 77.2 77.15 99.24 50 99.24C22.85 99.24 0.81 77.2 0.81 50.06C0.81 22.91 22.85 0.87 50 0.87C77.15 0.87 99.19 22.91 99.19 50.06Z" id="f3eQqN86U3"></path><path d="M76.19 14.8C77.04 14.8 77.72 15.49 77.72 16.33C77.72 29.83 77.72 68.8 77.72 82.29C77.72 83.14 77.04 83.83 76.19 83.83C65.41 83.83 34.59 83.83 23.81 83.83C22.96 83.83 22.28 83.14 22.28 82.29C22.28 68.8 22.28 29.83 22.28 16.33C22.28 15.49 22.96 14.8 23.81 14.8C34.59 14.8 65.41 14.8 76.19 14.8Z" id="d5fyPsKO4"></path><path d="" id="beXXKgMff"></path><path d="M68.02 46.17C67.26 46.21 63.46 46.42 56.63 46.8C60.39 42.52 62.48 40.14 62.9 39.67C63.79 38.65 64.05 37.3 63.7 36.08C63.52 35.25 63.02 34.5 62.24 34.02C62.22 34 47.27 25.31 47.27 25.31C46.05 24.6 44.51 24.76 43.45 25.7C42.72 26.35 36.88 31.56 36.15 32.22C34.8 33.42 34.69 35.48 35.89 36.83C37.09 38.17 39.15 38.29 40.5 37.09C40.87 36.76 42.71 35.11 46.03 32.15L50.61 34.81C45.76 40.33 43.07 43.4 42.53 44.01C39.18 44.56 36.17 46.1 33.8 48.33C34.22 48.75 37.6 52.13 38.02 52.55C39.93 50.81 42.46 49.76 45.23 49.76C51.16 49.76 55.97 54.57 55.97 60.49C55.97 63.27 54.91 65.8 53.18 67.71C53.6 68.13 56.98 71.51 57.4 71.93C60.21 68.94 61.93 64.92 61.93 60.49C61.93 57.86 61.32 55.36 60.23 53.14C60.53 53.13 62 53.05 64.64 52.9C64 60.79 63.64 65.17 63.57 66.05C63.42 67.85 64.76 69.42 66.56 69.57C66.65 69.58 66.74 69.58 66.83 69.58C68.51 69.58 69.94 68.29 70.08 66.58C70.22 64.89 71.32 51.38 71.45 49.69C71.53 48.75 71.2 47.83 70.54 47.15C69.88 46.47 68.96 46.12 68.02 46.17Z" id="bNw4ntYV"></path><path d="M69.96 27.7C69.96 24.68 67.51 22.23 64.49 22.23C61.47 22.23 59.02 24.68 59.02 27.7C59.02 30.72 61.47 33.16 64.49 33.16C67.51 33.16 69.96 30.72 69.96 27.7Z" id="cWaSyzhZh"></path><path d="M34.5 60.49C34.5 58.26 35.18 56.19 36.35 54.47C35.93 54.04 32.51 50.63 32.09 50.2C29.86 53.04 28.54 56.61 28.54 60.49C28.54 69.72 36.01 77.19 45.23 77.19C49.12 77.19 52.69 75.86 55.52 73.64C55.1 73.21 51.69 69.8 51.26 69.38C49.54 70.54 47.47 71.23 45.23 71.23C39.31 71.23 34.5 66.41 34.5 60.49Z" id="dCMorVltG"></path><path d="M43.93 98.41L43.93 83.83" id="fWe66uzdQ"></path><path d="M56.76 98.41L56.76 83.83" id="a23oO8zYa"></path></defs><g><g><g><use xlink:href="#f3eQqN86U3" opacity="1" fill="#ffffff" fill-opacity="1"></use><g><use xlink:href="#f3eQqN86U3" opacity="1" fill-opacity="0" stroke="#000000" stroke-width="1" stroke-opacity="1"></use></g></g><g><g><use xlink:href="#d5fyPsKO4" opacity="1" fill-opacity="0" stroke="#000000" stroke-width="1" stroke-opacity="1"></use></g></g><g><g><use xlink:href="#beXXKgMff" opacity="1" fill-opacity="0" stroke="#020202" stroke-width="1" stroke-opacity="1"></use></g></g><g><g><g><use xlink:href="#bNw4ntYV" opacity="1" fill="#ffffff" fill-opacity="1"></use><g><use xlink:href="#bNw4ntYV" opacity="1" fill-opacity="0" stroke="#000000" stroke-width="1" stroke-opacity="0.99"></use></g></g><g><use xlink:href="#cWaSyzhZh" opacity="1" fill="#ffffff" fill-opacity="1"></use><g><use xlink:href="#cWaSyzhZh" opacity="1" fill-opacity="0" stroke="#000000" stroke-width="1" stroke-opacity="0.99"></use></g></g></g><g><use xlink:href="#dCMorVltG" opacity="1" fill="#ffffff" fill-opacity="1"></use><g><use xlink:href="#dCMorVltG" opacity="1" fill-opacity="0" stroke="#000000" stroke-width="1" stroke-opacity="0.99"></use></g></g></g><g><g><use xlink:href="#fWe66uzdQ" opacity="1" fill-opacity="0" stroke="#060607" stroke-width="1" stroke-opacity="1"></use></g></g><g><g><use xlink:href="#a23oO8zYa" opacity="1" fill-opacity="0" stroke="#060607" stroke-width="1" stroke-opacity="1"></use></g></g></g></g></svg>