<?xml version="1.0" encoding="UTF-8" standalone="no"?>
<!DOCTYPE svg PUBLIC "-//W3C//DTD SVG 1.1//EN" "http://www.w3.org/Graphics/SVG/1.1/DTD/svg11.dtd">
<svg version="1.1" xmlns="http://www.w3.org/2000/svg" xmlns:xlink="http://www.w3.org/1999/xlink" preserveAspectRatio="xMidYMid meet" viewBox="0 0 100 100" width="100" height="100"><defs><path d="M75.69 11.19C76.5 11.19 77.17 11.85 77.17 12.67C77.17 25.72 77.17 63.38 77.17 76.43C77.17 77.24 76.5 77.9 75.69 77.9C65.27 77.9 35.48 77.9 25.06 77.9C24.24 77.9 23.58 77.24 23.58 76.43C23.58 63.38 23.58 25.72 23.58 12.67C23.58 11.85 24.24 11.19 25.06 11.19C35.48 11.19 65.27 11.19 75.69 11.19Z" id="buErt48jI"></path><path d="" id="a18IvfybVJ"></path><path d="M67.79 41.51C67.05 41.55 63.38 41.75 56.78 42.12C60.42 37.98 62.43 35.68 62.84 35.22C63.7 34.24 63.95 32.93 63.61 31.76C63.44 30.96 62.95 30.23 62.21 29.76C62.18 29.75 47.73 21.35 47.73 21.35C46.55 20.67 45.06 20.82 44.04 21.73C43.34 22.36 37.69 27.39 36.98 28.02C35.68 29.18 35.57 31.18 36.73 32.48C37.89 33.78 39.89 33.89 41.19 32.73C41.54 32.42 43.33 30.82 46.54 27.96L50.96 30.53C46.28 35.87 43.67 38.83 43.15 39.42C39.91 39.95 37 41.44 34.71 43.6C35.12 44 38.38 47.27 38.79 47.68C40.64 46 43.08 44.98 45.77 44.98C51.49 44.98 56.14 49.63 56.14 55.35C56.14 58.04 55.12 60.48 53.44 62.33C53.85 62.74 57.11 66 57.52 66.41C60.24 63.52 61.91 59.63 61.91 55.35C61.91 52.8 61.31 50.39 60.26 48.25C60.55 48.23 61.97 48.16 64.52 48.01C63.9 55.64 63.56 59.88 63.49 60.72C63.34 62.46 64.64 63.98 66.38 64.12C66.46 64.13 66.55 64.14 66.64 64.14C68.26 64.14 69.64 62.89 69.78 61.24C69.91 59.6 70.97 46.55 71.11 44.92C71.18 44.01 70.86 43.11 70.22 42.46C69.59 41.8 68.7 41.46 67.79 41.51Z" id="a3zb7RFugE"></path><path d="M69.66 23.65C69.66 20.74 67.29 18.37 64.38 18.37C61.46 18.37 59.09 20.74 59.09 23.65C59.09 26.57 61.46 28.94 64.38 28.94C67.29 28.94 69.66 26.57 69.66 23.65Z" id="c1KKgeFxlG"></path><path d="M35.39 55.35C35.39 53.2 36.05 51.19 37.18 49.53C36.77 49.12 33.47 45.82 33.06 45.41C30.91 48.15 29.63 51.6 29.63 55.35C29.63 64.27 36.85 71.49 45.77 71.49C49.52 71.49 52.97 70.21 55.71 68.06C55.3 67.65 52 64.35 51.59 63.94C49.93 65.07 47.92 65.73 45.77 65.73C40.04 65.73 35.39 61.08 35.39 55.35Z" id="bsns3ww4M"></path><path d="M43.96 90.18L43.96 78.34" id="f2KUZae1Wc"></path><path d="M56.78 90.18L56.78 78.34" id="c12Ka2Bc8n"></path><path d="M1.02 45.72C1.02 21.03 22.95 1.02 50 1.02C77.05 1.02 98.98 21.03 98.98 45.72C98.98 70.41 77.06 90.43 50 90.43C43.43 90.43 37.16 89.24 31.44 87.11C30.23 87.9 24.18 91.86 13.31 98.98L16.13 78.01C6.05 64.95 1.02 54.18 1.02 45.72Z" id="g18qYPS9sp"></path></defs><g><g><g><g><use xlink:href="#buErt48jI" opacity="1" fill-opacity="0" stroke="#700353" stroke-width="1" stroke-opacity="1"></use></g></g><g><g><use xlink:href="#a18IvfybVJ" opacity="1" fill-opacity="0" stroke="#700353" stroke-width="1" stroke-opacity="1"></use></g></g><g><g><g><g><use xlink:href="#a3zb7RFugE" opacity="1" fill-opacity="0" stroke="#700353" stroke-width="1" stroke-opacity="1"></use></g></g><g><g><use xlink:href="#c1KKgeFxlG" opacity="1" fill-opacity="0" stroke="#700353" stroke-width="1" stroke-opacity="1"></use></g></g></g><g><g><use xlink:href="#bsns3ww4M" opacity="1" fill-opacity="0" stroke="#700353" stroke-width="1" stroke-opacity="1"></use></g></g></g><g><g><use xlink:href="#f2KUZae1Wc" opacity="1" fill-opacity="0" stroke="#700353" stroke-width="1" stroke-opacity="1"></use></g></g><g><g><use xlink:href="#c12Ka2Bc8n" opacity="1" fill-opacity="0" stroke="#700353" stroke-width="1" stroke-opacity="1"></use></g></g><g><g><use xlink:href="#g18qYPS9sp" opacity="1" fill-opacity="0" stroke="#700353" stroke-width="1" stroke-opacity="1"></use></g></g></g></g></svg>