<?xml version="1.0" encoding="UTF-8" standalone="no"?>
<!DOCTYPE svg PUBLIC "-//W3C//DTD SVG 1.1//EN" "http://www.w3.org/Graphics/SVG/1.1/DTD/svg11.dtd">
<svg version="1.1" xmlns="http://www.w3.org/2000/svg" xmlns:xlink="http://www.w3.org/1999/xlink" preserveAspectRatio="xMidYMid meet" viewBox="0 0 100 100" width="100" height="100"><defs><path d="M73.09 10.97L71.3 32.12L91.92 35.27L79.13 48.38L93.47 59.87L72.34 65.81L75.84 87.3L60.39 78.76L53.53 96.89L41.77 77.37L23.81 87.3L26.44 71.21L8.47 70.87L23.97 51.91L7.73 35.27L24.37 32.73L20.56 17.78L39.48 25.15L49.82 3.11L58.34 21.25L73.09 10.97Z" id="b8bNj7kg4e"></path><path d="M29.46 48.58C29.46 37.63 39.19 28.75 51.19 28.75C63.19 28.75 72.92 37.63 72.92 48.58C72.92 59.53 63.19 68.41 51.19 68.41C48.28 68.41 45.5 67.89 42.96 66.94C42.42 67.29 39.74 69.05 34.91 72.21L36.16 62.9C31.7 57.11 29.46 52.34 29.46 48.58Z" id="a8pPZA9h0L"></path></defs><g><g><g><g><use xlink:href="#b8bNj7kg4e" opacity="1" fill-opacity="0" stroke="#1fc6be" stroke-width="2" stroke-opacity="1"></use></g></g><g><g><use xlink:href="#a8pPZA9h0L" opacity="1" fill-opacity="0" stroke="#eaf555" stroke-width="2" stroke-opacity="1"></use></g></g></g></g></svg>