<?xml version="1.0" encoding="UTF-8" standalone="no"?>
<!DOCTYPE svg PUBLIC "-//W3C//DTD SVG 1.1//EN" "http://www.w3.org/Graphics/SVG/1.1/DTD/svg11.dtd">
<svg version="1.1" xmlns="http://www.w3.org/2000/svg" xmlns:xlink="http://www.w3.org/1999/xlink" preserveAspectRatio="xMidYMid meet" viewBox="0 0 100 100" width="100" height="100"><defs><path d="M73.09 9.29L71.2 31.58L92.93 34.9L79.45 48.72L94.57 60.83L72.29 67.09L75.98 89.74L59.7 80.74L52.47 99.85L40.07 79.28L21.14 89.74L23.9 72.78L4.97 72.43L21.31 52.44L4.19 34.9L21.73 32.22L17.71 16.46L37.65 24.24L48.56 1L57.54 20.12L73.09 9.29Z" id="buHd3818M"></path><path d="M27.1 48.93C27.1 37.39 37.35 28.03 50 28.03C62.65 28.03 72.9 37.39 72.9 48.93C72.9 60.48 62.65 69.83 50 69.83C46.93 69.83 44 69.28 41.32 68.28C40.75 68.65 37.93 70.5 32.84 73.84L34.16 64.03C29.45 57.92 27.1 52.89 27.1 48.93Z" id="b1vwKCPlRZ"></path></defs><g><g><g><use xlink:href="#buHd3818M" opacity="1" fill="#1fc6be" fill-opacity="1"></use></g><g><use xlink:href="#b1vwKCPlRZ" opacity="1" fill="#eaf555" fill-opacity="1"></use><g><use xlink:href="#b1vwKCPlRZ" opacity="1" fill-opacity="0" stroke="#ffffff" stroke-width="3" stroke-opacity="1"></use></g></g></g></g></svg>