<svg xmlns="http://www.w3.org/2000/svg" xmlns:xlink="http://www.w3.org/1999/xlink" version="1.1" x="0px" y="0px" viewBox="0 0 100 125" enable-background="new 0 0 100 100" xml:space="preserve"><g><g><path d="M93.028,28.583l-2.881-1.524l-1.015-0.509l-1.186-0.678l-2.542-0.846l-3.22-1.354l-3.217-1.524l-2.543-1.187l-3.556-1.694    l-2.372-1.185l-0.846-0.339l-0.509-0.848l-1.693-3.22l-1.354-1.86l-2.033-2.205l-0.17,0.681v2.709l0.17,1.524l-0.339,3.05v3.218    l0.169,3.727l-0.169,1.694l0.169,3.726l-0.169,2.373l0.169,3.896l14.397,7.116l0.028-0.407l0.09,0.044v-0.245    c0-0.17-0.014-0.337-0.041-0.5l0.262-3.806l11.519-0.339l2.033-4.402l0.848-0.681l0.17-0.676l1.015-0.849l0.34-2.369    L93.028,28.583z"/><path d="M55.565,39.515c0.344,0.349,0.558,0.829,0.558,1.357v15.562c0,1.073-0.87,1.945-1.946,1.945H36.259    c-1.073,0-1.946-0.872-1.946-1.945V40.872c0-0.528,0.213-1.008,0.557-1.357H20.285c-0.002,0-0.005,0-0.005,0    c-0.01,0-0.015,0-0.022,0c-0.625,0-1.207,0.182-1.698,0.492l-8.27-4.354c-1.613-0.848-3.612-0.228-4.462,1.386    c-0.848,1.616-0.228,3.61,1.386,4.463l9.755,5.134v38.697c0,2.806,2.275,5.079,5.081,5.079c2.808,0,5.083-2.273,5.083-5.079    V67.859l12.066,20.243c0.952,1.597,2.639,2.48,4.371,2.48c0.884,0,1.781-0.232,2.597-0.717c2.411-1.437,3.2-4.556,1.764-6.968    l-9.874-16.562h17.85h10.695v18.996c0,2.806,2.275,5.079,5.083,5.079c2.806,0,5.081-2.273,5.081-5.079v-19.4    c0.979-0.547,1.643-1.593,1.643-2.791c0-0.005,0-0.005,0-0.005v-16.11l-15.957-7.511H55.565z"/><rect x="43.586" y="44.596" width="3.264" height="3.404"/><polygon points="43.586,51.262 43.586,54.488 43.586,54.666 46.85,54.666 46.85,54.488 46.85,51.262   "/><polygon points="50.254,51.262 50.254,48 46.85,48 43.586,48 40.182,48 40.182,51.262 43.586,51.262 46.85,51.262   "/></g></g><text x="0" y="115" fill="#000000" font-size="5px" font-weight="bold" font-family="'Helvetica Neue', Helvetica, Arial-Unicode, Arial, Sans-serif">Created by Blaise Sewell</text><text x="0" y="120" fill="#000000" font-size="5px" font-weight="bold" font-family="'Helvetica Neue', Helvetica, Arial-Unicode, Arial, Sans-serif">from the Noun Project</text></svg>